<?xml version="1.0" encoding="UTF-8"?>
<svg width="71px" height="68px" viewBox="0 0 71 68" version="1.1" xmlns="http://www.w3.org/2000/svg" xmlns:xlink="http://www.w3.org/1999/xlink">
    <g id="logo" fill="#61366f">
        <path d="M70.8579173,31.0672888 C68.2796835,33.0302682 61.2636154,38.3659852 60.8506752,38.6382116 C60.2831272,39.0136688 57.4324703,40.0615211 58.3049287,37.4245522 C58.6035764,36.5209838 64.5792702,32.9421833 64.8532589,32.0537607 C65.1288133,31.1517866 64.4516698,30.9042718 63.2531648,31.5336209 C62.2566287,32.0569493 54.7364214,36.4161587 54.0534067,36.6006987 C52.8772123,36.9195583 51.6493514,35.3384132 52.7664425,34.459955 C54.2115373,33.3256119 59.5445319,30.4243881 60.3062205,29.7934446 C60.8639833,29.3314968 61.1426689,28.3119432 60.087421,28.4231455 C59.0325644,28.5347463 52.2364701,31.7548298 51.3557921,32.0469849 C49.8652935,32.5436087 48.8456641,31.2330958 49.6464939,30.3861249 C50.6935222,29.2800807 56.4555049,27.1744115 58.1597147,25.978688 C58.7339167,25.5733377 59.8251746,25.0866782 58.7061264,24.5318625 C58.1565834,24.261629 52.120612,26.0799259 50.6461613,26.4402373 C48.9681761,26.8523633 47.8217291,25.2895527 50.2109107,24.1352809 C52.9457094,22.8148035 60.1657034,20.9929194 60.9618364,20.4668011 C61.9712891,19.8007831 63.1161705,18.5783551 61.7509239,17.4392291 C60.0811584,16.0442183 58.6685508,17.4392291 55.8848255,15.5491888 C55.1720634,15.0641236 54.7399441,13.3454703 56.0120346,13.2725312 C57.2872563,13.1975992 59.8153893,13.3538404 60.9046902,13.3538404 C61.5912276,13.3538404 62.7752502,13.3984807 63.7146401,13.3753634 C57.2289359,5.247632 47.0028942,0 35.4938026,0 C15.8871703,0 0,14.8516834 0,33.6297243 C0,33.5049705 0,33.7540795 0,33.6297243 C2.38344086,30.8743787 6.11047019,26.4517959 7.59274913,24.0886477 C9.69659104,20.7390275 13.4506278,21.0877802 12.7233835,25.6813514 C11.9941821,30.2749226 7.92075276,33.0900544 7.33833104,34.2758136 C6.75590932,35.4615727 5.53431107,39.1830629 12.8310219,36.5723999 C18.9437101,34.3870158 23.8899892,30.3115915 28.7290213,27.9034043 C30.3091534,27.1182125 32.0035778,26.3489637 33.0212502,26.7555097 C33.9250215,27.1182125 34.5493244,28.0150052 34.5137059,28.83009 C34.4647793,29.9341414 32.657628,30.8297383 32.2940059,31.2382772 C31.9299923,31.6448232 24.4735852,36.4994608 23.8539793,36.9426756 C23.235939,37.3878833 19.7069644,39.9056785 19.5973689,40.3504877 C19.4881648,40.7941011 19.5241748,41.7953203 20.9806205,41.2409031 C22.5658409,40.6362656 32.6983349,36.4328988 34.1140738,35.9047876 C35.6045724,35.3499719 38.0771248,34.6843524 38.9871587,34.756893 C39.8971927,34.831825 42.4151489,35.4862843 41.0600791,37.9805636 C40.2983904,39.3875317 34.877328,40.0914142 25.7084914,44.9077886 C24.4626256,45.5634437 22.3243394,47.4634484 24.0371603,47.5383804 C26.5840811,47.6479884 32.1487919,46.3904858 33.3136353,45.9803526 C34.4761303,45.5738066 38.3119723,43.847979 39.1339384,43.6853606 C40.624437,43.388024 43.2813447,44.0556363 41.3520727,47.0565038 C39.4635077,49.9959908 25.3824449,52.9091719 24.1819829,52.9091719 C23.4743092,52.9091719 21.9638486,53.9087968 21.8170689,54.3902748 C21.6722463,54.8721514 20.2158006,56.8367251 27.4193553,56.0941808 C34.6213443,55.3536294 37.6039071,53.9833302 38.2955329,55.4648317 C38.9871587,56.9463331 38.9155303,57.7996811 36.1869941,58.4294289 C34.1500837,58.8993482 21.6002264,60.9783129 15.3638519,62.0030479 C21.0816049,65.7831286 28.0162592,68 35.4938026,68 C55.1035663,68 71,52.7776423 71,34 C71,33.0103395 70.9459851,32.0350277 70.8579173,31.0672888 L70.8579173,31.0672888 Z" id="Shape"></path>
    </g>
</svg>
