<?xml version="1.0" standalone="no"?>
<!DOCTYPE svg PUBLIC "-//W3C//DTD SVG 20010904//EN"
 "http://www.w3.org/TR/2001/REC-SVG-20010904/DTD/svg10.dtd">
<svg version="1.0" xmlns="http://www.w3.org/2000/svg"
 width="568.000000pt" height="568.000000pt" viewBox="0 0 568.000000 568.000000"
 preserveAspectRatio="xMidYMid meet">
<metadata>
Created by potrace 1.11, written by Peter Selinger 2001-2013
</metadata>
<g transform="translate(0.000000,568.000000) scale(0.100000,-0.100000)"
fill="#000000" stroke="none">
<path d="M2618 5555 c-2 -1 -34 -6 -73 -10 -75 -7 -125 -13 -165 -20 -14 -3
-41 -7 -60 -10 -19 -3 -46 -8 -60 -10 -14 -3 -36 -7 -49 -10 -54 -10 -230 -58
-285 -77 -32 -11 -66 -22 -75 -23 -9 -2 -17 -4 -18 -5 -2 -2 -6 -3 -10 -5 -5
-1 -21 -7 -38 -14 -16 -7 -46 -19 -65 -26 -33 -12 -157 -67 -190 -84 -8 -4
-56 -29 -107 -55 -50 -26 -97 -53 -103 -61 -7 -8 -18 -15 -24 -15 -6 0 -34
-16 -61 -35 -28 -19 -59 -41 -69 -48 -30 -20 -141 -101 -146 -107 -3 -4 -15
-13 -26 -21 -79 -53 -297 -268 -389 -383 -16 -20 -42 -51 -57 -69 -15 -18 -28
-35 -28 -39 0 -4 -7 -13 -15 -21 -69 -69 -338 -556 -307 -557 4 0 2 -4 -4 -8
-15 -10 -97 -251 -120 -354 -2 -10 -6 -27 -9 -38 -30 -122 -53 -292 -60 -455
l-6 -120 38 41 c21 22 72 80 113 130 41 49 82 98 92 109 22 26 201 250 256
320 23 29 42 57 42 60 0 3 8 15 18 26 11 10 25 32 33 47 24 46 119 152 137
152 7 0 12 3 12 8 0 14 80 42 123 42 49 0 95 -25 126 -69 12 -17 19 -31 15
-31 -3 0 -2 -6 3 -12 6 -7 11 -20 11 -28 8 -95 8 -120 0 -159 -5 -25 -10 -55
-12 -66 -2 -11 -14 -47 -27 -80 -13 -33 -24 -62 -24 -65 0 -3 -20 -38 -44 -79
-46 -78 -139 -197 -212 -272 -114 -116 -157 -200 -146 -283 6 -46 51 -95 90
-98 83 -6 132 -3 202 13 86 19 254 75 270 90 5 5 16 9 25 9 19 0 268 123 380
187 47 28 96 56 110 64 13 8 30 20 38 27 7 6 18 12 24 12 6 0 19 6 27 14 9 8
32 23 51 34 19 11 79 47 132 81 231 146 454 265 573 306 127 44 217 17 267
-79 28 -55 20 -108 -24 -153 -47 -49 -187 -153 -383 -284 -93 -63 -171 -117
-173 -121 -2 -5 -8 -8 -13 -8 -8 0 -261 -166 -294 -193 -5 -4 -54 -41 -107
-81 -146 -110 -179 -142 -180 -176 -1 -16 5 -36 12 -45 14 -17 71 -20 98 -5 9
5 76 32 147 61 72 28 135 54 140 57 6 4 12 7 15 7 7 0 113 43 167 67 23 10 44
18 47 18 3 0 29 11 58 24 248 111 586 234 756 274 94 22 206 1 270 -51 50 -41
44 -166 -11 -218 -31 -29 -115 -66 -322 -144 -204 -76 -355 -136 -433 -171
-29 -13 -80 -36 -114 -50 -33 -14 -137 -64 -231 -111 -143 -72 -181 -96 -234
-148 -64 -63 -74 -84 -50 -103 17 -15 87 -21 110 -10 11 6 17 5 17 -2 0 -6 4
-9 9 -6 5 3 35 8 67 11 33 3 73 8 89 11 17 4 41 7 55 9 30 4 69 11 160 30 38
8 83 17 98 20 45 8 204 54 237 69 17 8 93 40 170 71 77 31 159 65 183 74 117
48 260 8 279 -79 15 -64 -26 -160 -95 -221 -37 -32 -164 -108 -192 -114 -3 -1
-22 -9 -43 -18 -38 -16 -173 -67 -192 -71 -5 -2 -17 -6 -25 -9 -35 -13 -200
-62 -245 -72 -5 -2 -30 -8 -55 -16 -48 -13 -52 -14 -90 -23 -14 -3 -62 -14
-107 -25 -45 -11 -92 -22 -105 -25 -126 -26 -188 -38 -213 -41 -85 -12 -103
-17 -142 -36 -66 -34 -110 -80 -119 -124 -9 -47 1 -64 52 -90 34 -18 59 -20
199 -20 88 0 189 4 225 8 69 8 328 44 370 51 14 3 41 7 60 10 19 3 46 8 60 10
14 3 41 7 60 10 19 3 49 8 65 12 55 11 179 8 203 -5 27 -15 63 -88 64 -132 2
-59 -56 -106 -168 -135 -49 -13 -439 -86 -534 -99 -24 -4 -48 -9 -53 -12 -4
-2 -27 -6 -50 -8 -23 -2 -62 -8 -87 -13 -25 -6 -67 -13 -95 -17 -27 -3 -57 -8
-65 -10 -8 -3 -29 -7 -45 -9 -28 -3 -47 -6 -130 -21 -16 -3 -43 -8 -60 -10
-25 -4 -98 -16 -115 -20 -5 -1 -77 -12 -139 -22 -18 -2 -41 -6 -50 -8 -9 -1
-65 -11 -126 -20 -60 -10 -116 -21 -123 -25 -10 -5 2 -17 35 -38 28 -18 55
-32 61 -32 7 0 12 -3 12 -7 0 -5 10 -13 23 -19 12 -6 65 -34 118 -61 200 -106
433 -191 679 -248 104 -23 138 -30 215 -41 22 -3 51 -7 65 -10 158 -26 626
-26 767 0 17 4 81 14 133 22 14 3 39 7 55 11 17 3 37 8 45 9 32 5 77 16 130
30 30 8 62 16 70 18 91 23 402 143 408 158 2 4 10 8 17 8 22 0 277 137 283
152 2 4 10 8 17 8 8 0 20 6 27 13 7 6 33 25 58 41 50 32 144 101 174 128 11
10 28 20 38 24 10 3 18 12 18 20 0 8 4 14 9 14 14 0 63 44 175 156 121 120
170 175 244 274 31 41 59 77 62 80 13 11 140 220 188 310 70 133 163 358 188
455 8 30 10 39 17 55 4 8 8 26 11 40 2 14 12 54 21 90 9 36 19 79 21 95 2 17
7 48 10 70 9 51 10 56 20 140 10 83 12 490 2 500 -3 3 -49 -27 -101 -67 -51
-40 -106 -82 -121 -93 -75 -55 -224 -169 -244 -186 -12 -10 -27 -19 -32 -19
-6 0 -10 -3 -10 -7 0 -5 -17 -19 -38 -33 -20 -14 -50 -37 -67 -52 -16 -16 -34
-28 -39 -28 -5 0 -16 -8 -25 -18 -9 -10 -33 -28 -53 -41 -21 -12 -38 -27 -38
-32 0 -5 -6 -9 -14 -9 -7 0 -19 -6 -25 -14 -6 -7 -26 -17 -44 -21 -17 -4 -36
-9 -42 -10 -23 -6 -31 -7 -57 -6 -16 0 -37 10 -49 22 -17 17 -20 29 -15 65 8
72 31 94 325 302 67 48 178 137 193 156 21 25 23 69 6 84 -26 20 -83 1 -206
-70 -46 -26 -88 -48 -93 -48 -5 0 -9 -4 -9 -10 0 -5 -5 -10 -10 -10 -6 0 -61
-29 -123 -64 -61 -35 -130 -74 -152 -86 -258 -146 -294 -159 -344 -124 -39 28
-60 72 -50 107 12 44 43 68 239 184 47 28 127 76 178 107 52 31 95 56 97 56
16 0 130 88 144 111 42 68 -2 90 -110 55 -29 -10 -71 -26 -93 -36 -23 -10 -90
-40 -151 -65 -60 -26 -132 -58 -160 -70 -27 -13 -70 -32 -95 -43 -25 -11 -66
-29 -92 -41 -26 -12 -68 -21 -93 -21 -38 0 -52 5 -76 29 -39 39 -38 73 4 114
17 18 42 38 55 45 36 20 173 88 223 110 241 109 393 187 446 231 53 44 15 87
-67 75 -37 -5 -174 -35 -215 -48 -29 -8 -102 -29 -115 -31 -8 -2 -49 -13 -90
-25 -155 -43 -195 -51 -235 -45 -77 12 -98 66 -48 126 48 57 200 116 666 259
136 42 257 85 282 101 63 40 100 93 100 145 0 81 -85 136 -230 149 -124 11
-162 21 -242 67 -60 33 -95 83 -95 134 0 70 -5 69 352 66 176 -2 320 0 320 5
0 20 -232 261 -345 358 -38 33 -72 62 -75 65 -31 33 -272 197 -385 262 -87 50
-264 134 -375 178 -125 50 -403 131 -498 146 -36 5 -45 7 -107 18 -16 3 -57 8
-90 12 -33 3 -69 9 -80 11 -21 6 -511 13 -517 8z"/>
</g>
</svg>
